<svg width="200" height="137" viewBox="0 0 200 137" fill="none" xmlns="http://www.w3.org/2000/svg">
<g clip-path="url(#clip0_108_845)">
<path d="M140.631 71.9637C138.985 71.9637 137.315 72.1017 135.638 72.3931C119.946 75.1224 109.446 90.0111 112.185 105.651C114.631 119.62 126.808 129.456 140.562 129.456C142.208 129.456 143.877 129.318 145.554 129.027C161.246 126.297 171.746 111.409 169.008 95.7687C166.562 81.8001 154.385 71.9637 140.631 71.9637V71.9637ZM142.246 110.144C141.685 110.243 141.115 110.289 140.562 110.289C135.9 110.289 131.938 106.954 131.131 102.354C130.538 98.9581 131.877 96.4127 132.738 95.2014C133.592 93.9901 135.538 91.8664 138.946 91.2761C139.508 91.1764 140.077 91.1304 140.631 91.1304C145.292 91.1304 149.254 94.4654 150.062 99.0654C150.969 104.271 147.469 109.239 142.246 110.144V110.144Z" fill="#E1251B"/>
<path d="M86.0308 62.2347V129.464H106.792V51.9H80.9769L86.0308 62.2347Z" fill="#E1251B"/>
<path d="M169.438 51.9L174.492 62.2347V129.464H195.254V51.9H169.438Z" fill="#E1251B"/>
<path d="M33.8538 51.9H5.38461L10.4385 62.2347V72.577H33.8538V129.464H54.6V72.577H76.0231V51.9H54.6H33.8538Z" fill="#E1251B"/>
</g>
<path d="M18.6721 10.816H17.3601V25.2H18.6721V10.816ZM9.04013 20.64V17.296H14.3361V12.16H7.68013V13.232H13.0081V16.224H7.72813V21.728H8.91213C11.3921 21.728 13.5361 21.632 16.1441 21.2L16.0161 20.128C13.5201 20.512 11.3921 20.64 9.04013 20.64ZM31.0869 13.424V13.792C31.0869 15.568 31.0869 17.712 30.5109 20.64L31.8229 20.784C32.3669 17.68 32.3829 15.616 32.3829 13.792V12.368H31.7749V12.352H22.5429V13.424H31.0869ZM34.1269 22H21.1509V23.088H34.1269V22ZM51.4958 22.256H45.6238V19.264C48.2958 19.088 50.1678 17.632 50.1678 15.536C50.1678 13.248 47.9918 11.776 44.9678 11.776C41.9438 11.776 39.7358 13.248 39.7358 15.536C39.7358 17.632 41.6238 19.088 44.2958 19.264V22.256H38.4558V23.344H51.4958V22.256ZM40.9998 15.536C40.9998 13.888 42.6638 12.816 44.9678 12.816C47.2558 12.816 48.9198 13.888 48.9198 15.536C48.9198 17.184 47.2558 18.256 44.9678 18.256C42.6638 18.256 40.9998 17.184 40.9998 15.536ZM55.5425 11.872H54.2465V19.344H64.1505V11.872H62.8705V14.496H55.5425V11.872ZM55.5425 18.272V15.552H62.8705V18.272H55.5425ZM65.7185 22.192H52.7105V23.28H65.7185V22.192ZM82.2394 10.832H80.9754V25.184H82.2394V10.832ZM78.0794 11.184V15.984H76.3034V17.072H78.0794V24.432H79.3114V11.184H78.0794ZM71.7914 20.56V17.392H75.6314V12.416H70.4794V13.488H74.3674V16.352H70.5274V21.664H71.4714C73.3114 21.664 74.9274 21.584 76.9274 21.248L76.8154 20.176C74.9594 20.496 73.4394 20.56 71.7914 20.56ZM94.7821 14.8H91.9021V15.872H94.7821V21.36H96.1101V10.848H94.7821V14.8ZM92.0941 19.2L92.7501 18.176C90.6701 17.456 89.2621 15.632 89.2621 13.776V13.072H92.4141V12H84.7501V13.072H87.9501V13.792C87.9501 15.824 86.4621 17.728 84.3341 18.496L85.0221 19.52C86.7021 18.896 88.0141 17.616 88.6381 15.952C89.2621 17.424 90.4941 18.624 92.0941 19.2ZM96.5101 23.792H88.2541V20.432H86.9261V24.864H96.5101V23.792ZM110.029 18.784V17.712H101.469V13.232H109.885V12.144H100.173V18.784H110.029ZM111.533 22.16H98.5089V23.248H111.533V22.16ZM130.774 16.8V18.88H117.834V8.64H130.634V10.76H120.514V12.7H130.214V14.74H120.514V16.8H130.774ZM115.874 21.46H132.554V23.6H115.874V21.46ZM143.332 15.66H150.352V17.56H133.672V15.66H140.692V14.68H135.752V10.28H145.712V9.38H135.712V7.6H148.312V11.94H138.352V12.9H148.652V14.68H143.332V15.66ZM138.192 22.8V23.82H148.872V25.58H135.572V21.14H145.752V20.2H135.552V18.42H148.372V22.8H138.192ZM164.588 10.624H166.7V25.408H164.588V10.624ZM157.388 17.584V20.24C158.508 20.24 159.558 20.2027 160.54 20.128C161.521 20.0533 162.529 19.9307 163.564 19.76L163.788 21.472C163.18 21.5787 162.588 21.6693 162.012 21.744C161.436 21.808 160.854 21.8613 160.268 21.904C159.681 21.936 159.084 21.9573 158.476 21.968C157.868 21.9787 157.228 21.984 156.556 21.984H155.228V15.92H160.012V13.568H155.212V11.888H162.172V17.584H157.388ZM181.562 17.584L180.666 19.344C179.376 19.088 178.272 18.624 177.354 17.952C176.448 17.28 175.754 16.4747 175.274 15.536C174.794 16.4747 174.101 17.2853 173.194 17.968C172.288 18.64 171.189 19.0987 169.898 19.344L169.002 17.584C169.834 17.4453 170.57 17.2053 171.21 16.864C171.85 16.512 172.389 16.1067 172.826 15.648C173.264 15.1893 173.594 14.6933 173.818 14.16C174.042 13.616 174.154 13.0827 174.154 12.56V11.504H176.41V12.56C176.41 13.0933 176.522 13.632 176.746 14.176C176.97 14.7093 177.301 15.2053 177.738 15.664C178.176 16.1227 178.714 16.5227 179.354 16.864C179.994 17.2053 180.73 17.4453 181.562 17.584ZM168.682 21.872H182.026V23.584H168.682V21.872ZM194.841 18.24V19.904H184.489V11.712H194.729V13.408H186.633V14.96H194.393V16.592H186.633V18.24H194.841ZM182.921 21.968H196.265V23.68H182.921V21.968Z" fill="#E1251B"/>
<rect x="122" width="4" height="4" rx="2" fill="#E1251B"/>
<rect x="140" width="4" height="4" rx="2" fill="#E1251B"/>
<defs>
<clipPath id="clip0_108_845">
<rect width="189.869" height="77.5637" fill="white" transform="translate(5.38461 51.9)"/>
</clipPath>
</defs>
</svg>
