<svg width="260" height="120" viewBox="0 0 260 120" fill="none" xmlns="http://www.w3.org/2000/svg">
<g clip-path="url(#clip0_4_69)">
<path d="M182.82 35.17C180.68 35.17 178.51 35.35 176.33 35.73C155.93 39.29 142.28 58.71 145.84 79.11C149.02 97.33 164.85 110.16 182.73 110.16C184.87 110.16 187.04 109.98 189.22 109.6C209.62 106.04 223.27 86.62 219.71 66.22C216.53 48 200.7 35.17 182.82 35.17ZM184.92 84.97C184.19 85.1 183.45 85.16 182.73 85.16C176.67 85.16 171.52 80.81 170.47 74.81C169.7 70.38 171.44 67.06 172.56 65.48C173.67 63.9 176.2 61.13 180.63 60.36C181.36 60.23 182.1 60.17 182.82 60.17C188.88 60.17 194.03 64.52 195.08 70.52C196.26 77.31 191.71 83.79 184.92 84.97Z" fill="#E1251B"/>
<path d="M111.84 22.48V110.17H138.83V9H105.27L111.84 22.48Z" fill="#E1251B"/>
<path d="M220.27 9L226.84 22.48V110.17H253.83V9H220.27Z" fill="#E1251B"/>
<path d="M44.01 9H7L13.57 22.48V35.97H44.01V110.17H70.98V35.97H98.83V9H70.98H44.01Z" fill="#E1251B"/>
</g>
<defs>
<clipPath id="clip0_4_69">
<rect width="246.83" height="101.17" fill="white" transform="translate(7 9)"/>
</clipPath>
</defs>
</svg>
