<svg width="70" height="34" viewBox="0 0 70 34" fill="none" xmlns="http://www.w3.org/2000/svg">
<rect width="70" height="34" rx="17" fill="#FFECEB"/>
<path d="M28.096 16.694H23V15.238H26.64V10.996H18.198V15.238H21.852V16.694H16.728V17.618H28.096V16.694ZM19.318 14.314V11.906H25.506V14.314H19.318ZM23.014 18.808V18.43H21.838V18.808C21.838 20.488 19.892 21.72 17.61 22.056L18.044 22.952C19.962 22.616 21.67 21.748 22.426 20.39C23.21 21.748 24.82 22.616 26.78 22.952L27.214 22.056C24.932 21.72 23.014 20.488 23.014 18.808ZM39.8409 10.464H38.7349V15.77H37.1249V10.758H36.0469V22.42H37.1249V16.708H38.7349V23.022H39.8409V10.464ZM32.8689 12.62V10.842H31.7349V12.62H29.1869V13.558H35.4169V12.62H32.8689ZM32.3089 14.398C30.7549 14.398 29.6209 15.574 29.6209 17.254C29.6209 18.962 30.7549 20.124 32.3089 20.124C33.8629 20.124 34.9969 18.962 34.9969 17.254C34.9969 15.574 33.8629 14.398 32.3089 14.398ZM32.3089 19.172C31.3429 19.172 30.6429 18.374 30.6429 17.254C30.6429 16.134 31.3009 15.364 32.3089 15.364C33.2749 15.364 33.9749 16.162 33.9749 17.254C33.9749 18.374 33.2749 19.172 32.3089 19.172ZM53.0558 20.474H50.2418V17.072C51.3058 16.526 51.8938 15.63 51.8938 14.496C51.8938 12.55 50.0038 11.276 47.3298 11.276C44.6698 11.276 42.7658 12.55 42.7658 14.496C42.7658 15.63 43.3818 16.54 44.4458 17.086V20.474H41.6458V21.426H53.0558V20.474ZM47.3298 12.172C49.3458 12.172 50.8018 13.096 50.8018 14.496C50.8018 15.896 49.3458 16.82 47.3298 16.82C45.3138 16.82 43.8718 15.896 43.8718 14.496C43.8718 13.096 45.3138 12.172 47.3298 12.172ZM45.5938 20.474V17.52C46.1398 17.646 46.7138 17.716 47.3298 17.716C47.9038 17.716 48.4918 17.646 49.0938 17.52V20.474H45.5938Z" fill="#E1251B"/>
</svg>
